<?xml version="1.0" encoding="UTF-8" standalone="yes"?>
<svg version="1.2" width="1024.000000pt" height="1024.000000pt" viewBox="0 0 1024.000000 1024.000000" preserveAspectRatio="xMidYMid meet" baseProfile="tiny-ps" xmlns="http://www.w3.org/2000/svg">
  <title>bimi-svg-tiny-12-ps</title>
  <g transform="translate(0.000000,1024.000000) scale(0.100000,-0.100000)" fill="#000000" stroke="none">
    <path d="M5025 9286 c-41 -18 -84 -63 -106 -111 -17 -37 -19 -76 -19 -525 l0&#xA;-485 -282 287 c-277 280 -284 287 -335 297 -181 37 -319 -146 -232 -309 10&#xA;-19 205 -224 433 -455 l415 -420 1 -360 0 -359 -51 49 c-47 47 -939 942 -1059&#xA;1063 -57 58 -117 91 -163 92 -53 0 -116 -22 -155 -56 -73 -62 -90 -153 -53&#xA;-281 10 -37 47 -176 82 -308 34 -132 106 -409 161 -615 146 -549 168 -634 164&#xA;-637 -1 -1 -11 5 -22 15 -11 9 -26 18 -33 20 -16 3 -605 343 -619 357 -2 2&#xA;-19 63 -38 137 -19 73 -69 259 -110 413 -42 154 -96 354 -120 445 -25 91 -55&#xA;185 -67 210 -90 177 -370 112 -385 -88 -4 -62 -1 -75 144 -582 68 -236 69&#xA;-240 58 -240 -5 0 -36 16 -69 36 -78 47 -341 199 -580 336 -185 105 -191 108&#xA;-252 108 -73 0 -108 -11 -146 -48 -91 -86 -88 -247 6 -314 33 -24 287 -172&#xA;615 -360 105 -60 192 -113 192 -118 0 -4 -10 -10 -23 -13 -12 -2 -133 -39&#xA;-270 -81 -136 -43 -252 -74 -257 -71 -6 3 -10 2 -10 -3 0 -4 -40 -21 -90 -36&#xA;-112 -35 -161 -75 -185 -147 -36 -107 3 -208 97 -257 88 -45 27 -61 1058 268&#xA;85 28 160 50 166 50 6 0 138 -73 295 -163 156 -90 308 -176 337 -192 l53 -29&#xA;-38 -12 c-21 -7 -135 -40 -253 -74 -118 -34 -266 -77 -329 -96 -64 -19 -122&#xA;-32 -134 -28 -11 3 -17 2 -14 -3 3 -5 -67 -31 -156 -57 -89 -26 -245 -72 -347&#xA;-103 -425 -126 -409 -119 -457 -200 -36 -62 -36 -138 -1 -208 41 -79 71 -95&#xA;313 -165 117 -34 739 -218 840 -249 33 -11 164 -49 290 -87 127 -37 233 -72&#xA;236 -77 3 -5 9 -8 13 -8 3 1 12 1 19 1 6 0 -138 -86 -321 -190 -183 -105 -339&#xA;-190 -345 -190 -7 0 -52 13 -102 29 -49 16 -184 59 -300 96 -115 37 -316 101&#xA;-445 142 -159 52 -251 76 -285 76 -53 1 -116 -25 -147 -60 -29 -31 -58 -106&#xA;-58 -149 0 -55 43 -139 89 -170 31 -21 717 -254 749 -254 31 0 0 -21 -136 -95&#xA;-229 -125 -643 -363 -665 -382 -48 -44 -71 -131 -55 -207 13 -63 77 -129 139&#xA;-146 84 -23 120 -9 376 141 191 113 583 339 588 339 2 0 -1 -15 -6 -32 -84&#xA;-287 -199 -735 -199 -775 1 -52 30 -112 73 -150 109 -96 282 -48 335 92 6 17&#xA;32 111 57 210 70 280 243 937 248 940 1 1 121 71 267 155 146 84 298 173 338&#xA;197 41 25 76 43 78 40 5 -5 -64 -274 -206 -802 -27 -99 -74 -279 -105 -400&#xA;-31 -121 -70 -267 -86 -324 -16 -58 -29 -125 -29 -150 1 -150 158 -254 298&#xA;-196 25 11 133 112 331 313 161 163 409 414 550 556 141 143 271 273 289 289&#xA;l32 29 0 -364 0 -364 -406 -409 c-223 -226 -416 -422 -429 -437 -13 -15 -29&#xA;-53 -35 -83 -37 -180 146 -312 305 -220 22 13 157 141 300 285 l260 263 5&#xA;-494 c5 -541 3 -521 67 -581 78 -75 213 -77 292 -5 13 12 34 45 47 72 l24 50&#xA;0 480 0 480 278 -277 c261 -259 281 -277 332 -292 135 -40 260 43 277 183 11&#xA;97 -2 112 -467 575 l-420 417 0 368 0 367 228 -231 c125 -126 388 -391 583&#xA;-589 238 -241 367 -365 394 -377 55 -26 119 -24 181 5 100 47 140 141 110 262&#xA;-58 234 -233 907 -356 1368 -33 125 -59 230 -57 232 2 2 116 -62 253 -142 137&#xA;-80 278 -162 314 -182 106 -58 118 -68 128 -115 5 -23 49 -188 97 -367 48&#xA;-179 113 -423 144 -543 33 -125 66 -229 78 -245 11 -15 40 -40 64 -57 93 -63&#xA;232 -27 289 75 44 81 37 120 -145 753 -20 70 -35 131 -33 136 2 4 91 -44 198&#xA;-107 593 -349 617 -362 683 -369 119 -12 229 88 229 208 0 60 -33 131 -76 163&#xA;-32 24 -212 130 -414 243 -64 36 -137 77 -162 91 -119 67 -187 104 -202 109&#xA;-26 8 -22 20 10 27 52 13 637 209 687 231 52 23 99 69 117 114 5 14 10 49 9&#xA;78 -1 101 -69 183 -170 204 -55 11 -58 10 -256 -54 -244 -80 -559 -180 -760&#xA;-242 -164 -51 -147 -51 -245 6 -25 14 -124 70 -220 125 -281 158 -354 203&#xA;-339 208 34 13 1053 321 1339 406 254 75 283 86 321 117 75 64 96 190 46 276&#xA;-15 25 -43 55 -62 67 -20 12 -167 60 -328 107 -161 46 -422 122 -582 168 -564&#xA;163 -750 217 -753 220 -2 2 25 18 60 37 58 31 229 130 498 287 58 33 110 61&#xA;117 61 7 0 171 -50 365 -111 194 -61 394 -124 443 -139 50 -16 133 -42 185&#xA;-59 53 -17 117 -31 144 -31 187 0 270 223 135 359 -35 35 -58 46 -143 72 -55&#xA;17 -193 60 -306 94 -113 35 -232 71 -265 80 -33 10 -64 20 -68 22 -4 3 43 34&#xA;105 70 62 35 247 144 412 241 317 188 337 204 356 289 13 57 -6 128 -46 173&#xA;-46 51 -94 72 -164 73 -58 0 -58 0 -479 -246 -414 -242 -421 -245 -415 -214 3&#xA;18 23 95 44 172 169 611 173 634 137 702 -78 147 -286 155 -365 15 -12 -22&#xA;-42 -116 -66 -208 -24 -93 -76 -290 -116 -439 -40 -148 -89 -334 -109 -412&#xA;-20 -78 -39 -144 -42 -147 -2 -2 -80 -49 -174 -103 -246 -144 -441 -260 -470&#xA;-279 -30 -20 -31 -13 -11 66 32 123 99 381 167 645 39 154 94 366 121 470 117&#xA;453 120 468 114 512 -16 117 -103 193 -223 193 -24 0 -58 -6 -76 -14 -27 -11&#xA;-408 -388 -1065 -1055 l-142 -144 0 367 0 366 428 431 c235 237 434 442 442&#xA;457 8 15 14 54 15 87 0 144 -132 242 -271 200 -45 -13 -76 -41 -332 -298&#xA;l-282 -284 0 483 c0 314 -4 493 -11 511 -19 53 -61 102 -103 123 -49 23 -144&#xA;27 -191 6z m-459 -2701 l335 -330 -3 -373 -3 -372 -280 169 -280 168 -48 184&#xA;c-102 392 -286 1085 -293 1104 -7 21 31 -16 572 -550z m1639 424 c-38 -144&#xA;-155 -601 -230 -894 -76 -299 -37 -248 -318 -414 -133 -80 -261 -157 -284&#xA;-173 l-42 -28 -1 372 0 372 452 452 c249 250 453 452 455 450 1 -1 -13 -63&#xA;-32 -137z m-1905 -1646 c91 -54 218 -130 282 -169 65 -38 118 -71 118 -74 0&#xA;-7 -261 -158 -280 -162 -8 -2 -19 -8 -25 -14 -18 -21 -300 -187 -315 -186 -8&#xA;0 -112 30 -230 65 -118 36 -388 116 -600 177 -212 61 -392 113 -400 116 -18 6&#xA;83 39 505 164 171 51 402 120 515 155 202 62 205 62 235 45 17 -9 104 -62 195&#xA;-117z m2225 24 c193 -57 470 -140 618 -183 147 -43 267 -81 267 -84 0 -3 -69&#xA;-24 -153 -48 -83 -23 -226 -65 -317 -91 -581 -172 -755 -223 -769 -223 -14 -1&#xA;-613 341 -633 360 -4 4 63 49 150 100 86 51 227 135 312 187 85 51 160 92 165&#xA;90 6 -1 168 -50 360 -108z m-1625 -1004 l-1 -368 -216 -220 c-118 -121 -319&#xA;-326 -446 -455 -127 -129 -232 -229 -235 -222 -2 6 8 51 21 99 14 49 42 153&#xA;62 233 20 80 54 210 75 290 21 80 66 253 100 385 34 132 64 247 66 256 4 15&#xA;55 49 339 224 55 34 129 80 165 103 36 22 66 41 68 41 1 1 2 -164 2 -366z&#xA;m744 179 l260 -159 32 -124 c18 -68 91 -349 163 -624 72 -275 133 -511 137&#xA;-525 7 -27 -74 50 -602 580 l-304 304 0 368 0 369 28 -15 c15 -8 144 -86 286&#xA;-174z"/>
  </g>
</svg>